<?xml version="1.0" encoding="utf-8"?>
<!-- Generator: Adobe Illustrator 27.5.0, SVG Export Plug-In . SVG Version: 6.00 Build 0)  -->
<svg version="1.1" xmlns="http://www.w3.org/2000/svg" xmlns:xlink="http://www.w3.org/1999/xlink" x="0px" y="0px"
	 viewBox="0 0 500 500" style="enable-background:new 0 0 500 500;" xml:space="preserve">
<g id="BACKGROUND">
	<rect style="fill:#FFFFFF;" width="500" height="500"/>
</g>
<g id="OBJECTS">
	<g>
		<g>
			<g>
				<path style="fill:#FFFFFF;" d="M133.358,353.23l17.998,18.979c0.342,0.36,0.876,0.463,1.326,0.254l3.786-1.754
					c1.672-0.775,2.697-2.497,2.58-4.337l-1.291-20.265L133.358,353.23z"/>
				<path style="fill:#1D1D1B;" d="M133.468,353.259c3.87,3.61,7.403,6.839,10.717,10.094c1.672,1.622,3.248,3.258,4.747,4.994
					c0.75,0.867,1.484,1.761,2.229,2.662l0.562,0.676c0.117,0.14,0.117,0.15,0.187,0.207c0.057,0.046,0.125,0.081,0.199,0.101
					c0.074,0.022,0.153,0.028,0.232,0.018c0.04-0.003,0.079-0.015,0.119-0.026l0.21-0.081l0.838-0.326
					c1.083-0.462,2.266-0.907,3.246-1.429c0.958-0.555,1.627-1.559,1.831-2.633c0.109-0.55,0.066-1.061-0.004-1.679l-0.207-1.785
					l-0.426-3.57c-0.633-4.756-0.962-9.531-1.389-14.3l1.534,1.076c-1.947,0.59-3.874,1.164-5.844,1.658
					c-1.956,0.52-3.949,0.984-5.971,1.458L133.468,353.259z M133.248,353.2l5.624-2.073l5.965-2.166
					c2.045-0.713,4.118-1.436,6.229-2.103c2.097-0.693,4.236-1.306,6.355-1.904l1.477-0.417l0.057,1.492
					c0.182,4.785,0.461,9.563,0.437,14.361l0.03,3.595l0.022,1.797c0.025,0.571,0.05,1.271-0.12,1.893
					c-0.29,1.271-1.107,2.382-2.196,3.075c-0.569,0.351-1.101,0.548-1.637,0.835l-1.599,0.818l-0.79,0.429l-0.198,0.107
					c-0.097,0.048-0.198,0.092-0.304,0.121c-0.211,0.062-0.436,0.083-0.658,0.058c-0.222-0.023-0.441-0.09-0.641-0.198
					c-0.191-0.091-0.406-0.296-0.489-0.376l-0.673-0.627c-0.902-0.835-1.815-1.678-2.712-2.548
					c-1.794-1.737-3.512-3.575-5.134-5.425C139.02,360.253,135.966,356.536,133.248,353.2z"/>
			</g>
			<g>
				<path style="fill:#FFFFFF;" d="M133.358,353.23l17.998,18.979c0.342,0.36,0.876,0.463,1.326,0.254l3.786-1.754
					c1.672-0.775,2.697-2.497,2.58-4.337l-1.291-20.265L133.358,353.23z"/>
				<path style="fill:#1D1D1B;" d="M133.468,353.259c3.87,3.61,7.403,6.839,10.717,10.094c1.672,1.622,3.248,3.258,4.747,4.994
					c0.75,0.867,1.484,1.761,2.229,2.662l0.562,0.676c0.117,0.14,0.117,0.15,0.187,0.207c0.057,0.046,0.125,0.081,0.199,0.101
					c0.074,0.022,0.153,0.028,0.232,0.018c0.04-0.003,0.079-0.015,0.119-0.026l0.21-0.081l0.838-0.326
					c1.083-0.462,2.266-0.907,3.246-1.429c0.958-0.555,1.627-1.559,1.831-2.633c0.109-0.55,0.066-1.061-0.004-1.679l-0.207-1.785
					l-0.426-3.57c-0.633-4.756-0.962-9.531-1.389-14.3l1.534,1.076c-1.947,0.59-3.874,1.164-5.844,1.658
					c-1.956,0.52-3.949,0.984-5.971,1.458L133.468,353.259z M133.248,353.2l5.624-2.073l5.965-2.166
					c2.045-0.713,4.118-1.436,6.229-2.103c2.097-0.693,4.236-1.306,6.355-1.904l1.477-0.417l0.057,1.492
					c0.182,4.785,0.461,9.563,0.437,14.361l0.03,3.595l0.022,1.797c0.025,0.571,0.05,1.271-0.12,1.893
					c-0.29,1.271-1.107,2.382-2.196,3.075c-0.569,0.351-1.101,0.548-1.637,0.835l-1.599,0.818l-0.79,0.429l-0.198,0.107
					c-0.097,0.048-0.198,0.092-0.304,0.121c-0.211,0.062-0.436,0.083-0.658,0.058c-0.222-0.023-0.441-0.09-0.641-0.198
					c-0.191-0.091-0.406-0.296-0.489-0.376l-0.673-0.627c-0.902-0.835-1.815-1.678-2.712-2.548
					c-1.794-1.737-3.512-3.575-5.134-5.425C139.02,360.253,135.966,356.536,133.248,353.2z"/>
			</g>
			<g>
				<path style="fill:#FFFFFF;" d="M108.899,285.167c0,0,11.615,37.538,20.393,54.538l37.916-31.478
					c0,0-14.796,10.313-46.359-29.885c-0.033-0.042-0.112-0.072-0.156-0.098c-0.147-0.085-0.302-0.158-0.459-0.223
					c-0.241-0.099-0.49-0.176-0.743-0.234c-0.331-0.077-0.67-0.12-1.009-0.134c-0.42-0.017-0.841,0.012-1.256,0.079
					c-0.507,0.082-1.004,0.222-1.484,0.404c-0.59,0.224-1.155,0.512-1.693,0.842c-0.666,0.408-1.292,0.881-1.883,1.391
					c-0.733,0.633-1.415,1.326-2.055,2.053c-0.262,0.297-0.518,0.601-0.767,0.909c-0.13,0.16-0.258,0.322-0.385,0.486
					c-0.115,0.147-0.229,0.27-0.258,0.46c-0.01,0.067,0,0.136,0.01,0.203C108.744,284.719,108.822,284.938,108.899,285.167z"/>
				<path style="fill:#1D1D1B;" d="M109.007,285.132c1.455,4.634,3.05,9.222,4.788,13.759c1.692,4.552,3.51,9.057,5.264,13.578
					l5.209,13.568c1.747,4.511,3.465,9.044,5.548,13.398l-0.902-0.183c3.239-2.527,6.469-5.066,9.63-7.688
					c3.173-2.607,6.29-5.282,9.425-7.934l9.283-8.105c3.077-2.722,6.206-5.383,9.315-8.067l1.213,1.593
					c-3.279,1.825-6.655,1.585-9.832,0.994l-2.35-0.586c-0.757-0.261-1.502-0.55-2.254-0.826c-0.372-0.145-0.756-0.268-1.119-0.431
					l-1.069-0.525l-2.138-1.053c-5.58-3.044-10.338-7.202-14.782-11.553c-1.097-1.106-2.194-2.213-3.266-3.34
					c-1.031-1.163-2.029-2.356-3.042-3.532c-2.067-2.32-3.857-4.861-5.744-7.314l-1.406-1.846l-0.176-0.231l-0.088-0.115
					l-0.043-0.055l-0.011,0.012c0.024,0.025-0.067-0.035-0.143-0.071l-0.224-0.121c-0.327-0.111-0.647-0.277-1.006-0.309
					c-0.351-0.067-0.704-0.136-1.069-0.097c-0.362,0.018-0.73-0.011-1.093,0.069c-0.725,0.132-1.442,0.37-2.115,0.708
					c-1.355,0.669-2.567,1.63-3.626,2.735c-0.551,0.532-1.102,1.066-1.583,1.666c-0.245,0.286-0.501,0.601-0.714,0.886
					C108.714,284.377,108.943,284.776,109.007,285.132z M108.79,285.202l-0.163-0.571c-0.065-0.17-0.08-0.455,0.049-0.642
					c0.241-0.337,0.47-0.625,0.72-0.929c0.475-0.613,1.023-1.163,1.573-1.713c1.046-1.146,2.221-2.198,3.613-2.957
					c0.692-0.378,1.423-0.709,2.207-0.905c0.389-0.115,0.799-0.121,1.205-0.169c0.407-0.069,0.817-0.026,1.23,0.022
					c0.418,0.013,0.816,0.17,1.222,0.284l0.296,0.131c0.097,0.047,0.183,0.067,0.366,0.202l0.111,0.089l0.05,0.056l0.096,0.108
					l0.191,0.216l1.533,1.728c2.059,2.289,4.054,4.629,6.241,6.785c1.062,1.107,2.139,2.197,3.183,3.316l3.316,3.166l1.647,1.592
					c0.562,0.515,1.155,0.992,1.731,1.49c1.172,0.968,2.291,2.01,3.504,2.918l3.643,2.714l3.832,2.39l1.993,1.031l0.997,0.517
					c0.337,0.159,0.688,0.278,1.031,0.419l2.073,0.811l2.129,0.577c0.71,0.192,1.436,0.232,2.154,0.36
					c0.72,0.111,1.436,0.054,2.155,0.096c0.698-0.087,1.426-0.091,2.09-0.287l0.509-0.115l0.478-0.167
					c0.159-0.055,0.326-0.104,0.462-0.178c0.14-0.065,0.307-0.14,0.376-0.182l1.213,1.593c-3.21,2.563-6.401,5.148-9.643,7.672
					l-9.675,7.634c-3.184,2.594-6.387,5.165-9.533,7.804c-3.159,2.624-6.248,5.332-9.328,8.051l-0.541,0.477l-0.361-0.661
					c-2.347-4.294-4.403-8.724-6.309-13.209c-1.903-4.488-3.597-9.054-5.138-13.67c-1.551-4.612-2.915-9.285-4.312-13.942
					C111.658,294.483,110.231,289.839,108.79,285.202z"/>
			</g>
			<g style="opacity:0.3;">
				<path style="fill:#FFFFFF;" d="M108.899,285.167c0,0,11.615,37.538,20.393,54.538l37.916-31.478
					c0,0-14.796,10.313-46.359-29.885c-0.033-0.042-0.112-0.072-0.156-0.098c-0.147-0.085-0.302-0.158-0.459-0.223
					c-0.241-0.099-0.49-0.176-0.743-0.234c-0.331-0.077-0.67-0.12-1.009-0.134c-0.42-0.017-0.841,0.012-1.256,0.079
					c-0.507,0.082-1.004,0.222-1.484,0.404c-0.59,0.224-1.155,0.512-1.693,0.842c-0.666,0.408-1.292,0.881-1.883,1.391
					c-0.733,0.633-1.415,1.326-2.055,2.053c-0.262,0.297-0.518,0.601-0.767,0.909c-0.13,0.16-0.258,0.322-0.385,0.486
					c-0.115,0.147-0.229,0.27-0.258,0.46c-0.01,0.067,0,0.136,0.01,0.203C108.744,284.719,108.822,284.938,108.899,285.167z"/>
				<path style="fill:#1D1D1B;" d="M109.007,285.132c1.455,4.634,3.05,9.222,4.788,13.759c1.692,4.552,3.51,9.057,5.264,13.578
					l5.209,13.568c1.747,4.511,3.465,9.044,5.548,13.398l-0.902-0.183c3.239-2.527,6.469-5.066,9.63-7.688
					c3.173-2.607,6.29-5.282,9.425-7.934l9.283-8.105c3.077-2.722,6.206-5.383,9.315-8.067l1.213,1.593
					c-3.279,1.825-6.655,1.585-9.832,0.994l-2.35-0.586c-0.757-0.261-1.502-0.55-2.254-0.826c-0.372-0.145-0.756-0.268-1.119-0.431
					l-1.069-0.525l-2.138-1.053c-5.58-3.044-10.338-7.202-14.782-11.553c-1.097-1.106-2.194-2.213-3.266-3.34
					c-1.031-1.163-2.029-2.356-3.042-3.532c-2.067-2.32-3.857-4.861-5.744-7.314l-1.406-1.846l-0.176-0.231l-0.088-0.115
					l-0.043-0.055l-0.011,0.012c0.024,0.025-0.067-0.035-0.143-0.071l-0.224-0.121c-0.327-0.111-0.647-0.277-1.006-0.309
					c-0.351-0.067-0.704-0.136-1.069-0.097c-0.362,0.018-0.73-0.011-1.093,0.069c-0.725,0.132-1.442,0.37-2.115,0.708
					c-1.355,0.669-2.567,1.63-3.626,2.735c-0.551,0.532-1.102,1.066-1.583,1.666c-0.245,0.286-0.501,0.601-0.714,0.886
					C108.714,284.377,108.943,284.776,109.007,285.132z M108.79,285.202l-0.163-0.571c-0.065-0.17-0.08-0.455,0.049-0.642
					c0.241-0.337,0.47-0.625,0.72-0.929c0.475-0.613,1.023-1.163,1.573-1.713c1.046-1.146,2.221-2.198,3.613-2.957
					c0.692-0.378,1.423-0.709,2.207-0.905c0.389-0.115,0.799-0.121,1.205-0.169c0.407-0.069,0.817-0.026,1.23,0.022
					c0.418,0.013,0.816,0.17,1.222,0.284l0.296,0.131c0.097,0.047,0.183,0.067,0.366,0.202l0.111,0.089l0.05,0.056l0.096,0.108
					l0.191,0.216l1.533,1.728c2.059,2.289,4.054,4.629,6.241,6.785c1.062,1.107,2.139,2.197,3.183,3.316l3.316,3.166l1.647,1.592
					c0.562,0.515,1.155,0.992,1.731,1.49c1.172,0.968,2.291,2.01,3.504,2.918l3.643,2.714l3.832,2.39l1.993,1.031l0.997,0.517
					c0.337,0.159,0.688,0.278,1.031,0.419l2.073,0.811l2.129,0.577c0.71,0.192,1.436,0.232,2.154,0.36
					c0.72,0.111,1.436,0.054,2.155,0.096c0.698-0.087,1.426-0.091,2.09-0.287l0.509-0.115l0.478-0.167
					c0.159-0.055,0.326-0.104,0.462-0.178c0.14-0.065,0.307-0.14,0.376-0.182l1.213,1.593c-3.21,2.563-6.401,5.148-9.643,7.672
					l-9.675,7.634c-3.184,2.594-6.387,5.165-9.533,7.804c-3.159,2.624-6.248,5.332-9.328,8.051l-0.541,0.477l-0.361-0.661
					c-2.347-4.294-4.403-8.724-6.309-13.209c-1.903-4.488-3.597-9.054-5.138-13.67c-1.551-4.612-2.915-9.285-4.312-13.942
					C111.658,294.483,110.231,289.839,108.79,285.202z"/>
			</g>
			<g>
				<path style="fill:#FFFFFF;" d="M136.31,331.466l88.314-67.218l148.251-104.461c0,0,9.763-6.962,20.606-11.123
					c3.253-1.248,6.603-2.244,9.816-2.724c3.213-0.48,6.289-0.445,8.993,0.37c0,0,23.785-7.884,27.848,6.575
					c4.063,14.459-15.485,33.152-15.485,33.152l-115.727,82.122c0,0-81.987,55.573-109.329,66.457
					c-27.342,10.883-78.474,26.318-71.413,16.333C135.246,340.966,136.31,331.466,136.31,331.466z"/>
				<path style="fill:#1D1D1B;" d="M136.161,331.382c10.854-8.613,21.851-17.188,32.826-25.806l33.153-25.765
					c11.105-8.549,22.154-17.269,33.637-25.167c11.39-8.077,22.742-16.206,34.186-24.21c22.842-16.069,45.897-31.842,68.879-47.713
					c11.524-7.897,22.944-15.904,34.414-23.904c5.838-3.903,12.001-7.292,18.481-10.022c3.243-1.351,6.598-2.484,10.077-3.169
					c3.461-0.664,7.133-0.908,10.647,0.117l-0.357,0.005c2.842-0.891,5.714-1.505,8.65-1.888c2.93-0.368,5.918-0.469,8.895-0.054
					c2.945,0.43,5.987,1.497,8.227,3.717c1.113,1.094,1.973,2.437,2.561,3.871c0.573,1.444,0.873,2.959,1.006,4.482
					c0.226,3.06-0.359,6.09-1.313,8.921c-0.959,2.842-2.297,5.516-3.8,8.071c-3.059,5.096-6.729,9.713-10.908,13.969l-0.043,0.044
					l-0.082,0.059c-24.888,18.035-49.871,35.939-74.879,53.808l-37.507,26.812c-1.56,1.106-3.13,2.242-4.748,3.309l-4.789,3.215
					l-9.604,6.386c-6.404,4.255-12.855,8.44-19.325,12.596c-12.95,8.296-25.969,16.493-39.246,24.29
					c-3.322,1.945-6.635,3.904-10.003,5.778l-5.037,2.833l-5.099,2.737c-1.687,0.931-3.416,1.799-5.154,2.651l-2.599,1.291
					c-0.859,0.441-1.734,0.858-2.637,1.233c-1.79,0.763-3.568,1.591-5.366,2.298c-1.799,0.697-3.604,1.376-5.412,2.042
					c-7.235,2.661-14.55,5.073-21.902,7.359c-7.357,2.272-14.762,4.396-22.254,6.217c-3.747,0.906-7.519,1.732-11.345,2.329
					c-1.915,0.292-3.841,0.539-5.803,0.619c-0.983,0.028-1.971,0.036-2.988-0.125c-0.506-0.078-1.028-0.204-1.549-0.472
					c-0.255-0.139-0.53-0.319-0.73-0.613c-0.221-0.274-0.308-0.651-0.316-0.985c0.019-0.677,0.314-1.157,0.587-1.601
					c0.295-0.45,0.549-0.797,0.826-1.201c0.558-0.771,1.058-1.58,1.565-2.387c0.98-1.631,1.908-3.3,2.693-5.039
					c0.797-1.733,1.503-3.51,2.092-5.327c0.293-0.909,0.567-1.825,0.796-2.752c0.121-0.462,0.224-0.929,0.324-1.395l0.139-0.702
					l0.062-0.352C136.111,331.668,136.108,331.599,136.161,331.382z M136.459,331.551c0.025,0.021-0.015,0.19-0.023,0.298
					l-0.052,0.359l-0.119,0.715c-0.087,0.475-0.177,0.95-0.285,1.421c-0.203,0.944-0.452,1.878-0.72,2.806
					c-0.54,1.855-1.199,3.675-1.953,5.456c-0.742,1.787-1.632,3.511-2.579,5.2c-0.49,0.836-0.975,1.676-1.52,2.479
					c-0.505,0.819-1.169,1.62-1.162,2.266c-0.038,0.522,0.833,0.853,1.715,0.951c0.885,0.115,1.83,0.084,2.763,0.027
					c1.876-0.134,3.759-0.432,5.631-0.776c3.744-0.714,7.465-1.616,11.167-2.587c14.792-3.975,29.339-8.945,43.648-14.396
					c1.788-0.684,3.57-1.382,5.344-2.095c1.768-0.722,3.463-1.542,5.197-2.306l1.293-0.587l1.273-0.653l2.545-1.306
					c1.7-0.861,3.394-1.737,5.059-2.685l5.02-2.778l4.971-2.881c3.322-1.904,6.598-3.898,9.881-5.878
					c13.1-7.974,26.066-16.194,38.94-24.555l19.259-12.626l9.594-6.367l4.782-3.204c1.591-1.047,3.134-2.162,4.709-3.276
					l37.68-26.542c25.117-17.7,50.259-35.365,75.495-52.9l-0.125,0.103c4.065-3.983,7.797-8.489,10.829-13.34
					c1.496-2.442,2.819-4.991,3.77-7.663c0.948-2.664,1.526-5.47,1.366-8.244c-0.097-1.378-0.348-2.754-0.831-4.034
					c-0.499-1.27-1.221-2.439-2.171-3.405c-1.901-1.956-4.622-3.001-7.398-3.452c-2.8-0.439-5.694-0.344-8.544-0.009
					c-2.847,0.351-5.703,0.947-8.43,1.783l-0.185,0.057l-0.172-0.052c-3.221-0.966-6.735-0.778-10.096-0.151
					c-3.379,0.644-6.681,1.733-9.886,3.046c-3.218,1.289-6.326,2.856-9.364,4.537c-3.034,1.69-6.002,3.511-8.864,5.467
					c-11.374,8.06-22.768,16.155-34.074,24.337c-22.672,16.298-45.27,32.693-68.081,48.792
					c-22.728,16.189-46.07,31.68-67.955,48.742l-33.507,24.972C159.047,314.914,147.824,323.251,136.459,331.551z"/>
			</g>
			<g>
				<path style="fill:#1D1D1B;" d="M412.289,146.311c-2.704-0.815-5.78-0.851-8.993-0.37c-3.213,0.48-6.563,1.476-9.816,2.724
					l-14.041,9.811c0,0,1.65,9.67,31.644-10.759L412.289,146.311z"/>
				<path style="fill:#1D1D1B;" d="M412.234,146.327c-0.707-0.094-1.551-0.273-2.326-0.324c-0.793-0.065-1.587-0.077-2.378-0.067
					c-1.587,0.023-3.159,0.263-4.72,0.53c-1.56,0.283-3.103,0.676-4.623,1.14c-1.524,0.454-3.035,0.957-4.543,1.48l0.097-0.051
					c-2.387,1.568-4.815,3.077-7.174,4.685c-2.356,1.613-4.67,3.285-6.957,4.995l0.121-0.29c0.176,0.579,0.708,1.095,1.289,1.396
					c0.613,0.287,1.302,0.43,2.005,0.458c0.355,0,0.707,0.026,1.063,0.008l1.072-0.137c0.358-0.03,0.712-0.1,1.066-0.201
					l1.062-0.255c0.712-0.146,1.395-0.448,2.093-0.664c0.701-0.215,1.379-0.504,2.056-0.8c0.676-0.295,1.361-0.566,2.03-0.88
					l1.995-0.974c1.342-0.622,2.637-1.354,3.947-2.051c1.324-0.673,2.605-1.43,3.893-2.175c2.599-1.453,5.104-3.071,7.693-4.568
					l-0.031,0.028L412.234,146.327z M412.344,146.295c-0.355,0.469-0.723,1.004-1.138,1.526l-0.009,0.012l-0.022,0.017
					c-1.202,0.89-2.42,1.759-3.642,2.624c-0.614,0.428-1.212,0.881-1.839,1.29l-1.894,1.21c-1.265,0.803-2.513,1.637-3.832,2.358
					c-1.316,0.724-2.593,1.518-3.968,2.141l-2.033,0.984c-0.686,0.312-1.401,0.568-2.099,0.854c-0.699,0.285-1.401,0.564-2.136,0.77
					c-0.733,0.207-1.434,0.495-2.19,0.634c-0.756,0.134-1.482,0.373-2.264,0.399l-1.155,0.094c-0.389,0.003-0.784-0.04-1.174-0.06
					c-0.78-0.066-1.571-0.291-2.285-0.687c-0.694-0.438-1.301-1.05-1.512-1.935l-0.044-0.183l0.165-0.108
					c2.392-1.56,4.758-3.158,7.083-4.816c2.321-1.662,4.574-3.423,6.866-5.126l0.033-0.024l0.065-0.027
					c2.98-1.265,6.13-2.145,9.345-2.649c1.607-0.262,3.246-0.331,4.874-0.267c0.814,0.032,1.626,0.129,2.425,0.284
					C410.778,145.777,411.511,145.928,412.344,146.295z"/>
			</g>
			<g>
				<path style="fill:#FFFFFF;" d="M264.943,297.014c0,0,13.392-1.058,17.492,4.99c3.626,5.349,24.084,41.643,28.762,49.957
					c0.542,0.964,1.726,1.346,2.735,0.893l7.401-3.33c3.154-1.419,5.439-4.263,6.144-7.649l21.353-102.528l-9.102,6.257
					L264.943,297.014z"/>
				<path style="fill:#1D1D1B;" d="M265.051,296.976c0.073-0.068-0.019-0.103,0.083-0.095l0.198-0.017l0.397-0.031l0.794-0.048
					c0.53-0.031,1.06-0.039,1.591-0.052c1.062-0.008,2.125,0.023,3.187,0.109c2.121,0.168,4.25,0.502,6.306,1.203
					c2.026,0.695,4.095,1.818,5.394,3.733c1.21,1.779,2.295,3.578,3.415,5.379c4.444,7.198,8.654,14.522,12.888,21.834
					c4.235,7.31,8.428,14.644,12.474,22.061c0.299,0.557,0.377,0.695,0.648,0.88c0.246,0.163,0.56,0.231,0.859,0.181
					c0.21-0.016,0.82-0.322,1.276-0.506l1.455-0.626l2.91-1.251c0.947-0.421,1.997-0.824,2.838-1.26
					c1.74-0.914,3.209-2.362,4.153-4.11c0.476-0.878,0.821-1.806,1.033-2.805l0.7-3.09c1.866-8.239,3.656-16.493,5.322-24.774
					l2.509-12.419l2.409-12.44c3.13-16.603,6.465-33.164,9.816-49.721l1.776,1.181l-10.431,7.249l-10.34,7.092
					c-6.921,4.684-13.84,9.333-20.876,13.955l-21.228,14.001C279.476,287.306,272.283,292.095,265.051,296.976z M264.836,297.052
					c6.749-4.73,13.537-9.553,20.388-14.448l20.715-14.834c6.946-4.989,14.008-9.952,21.068-14.88l10.632-7.326l10.541-7.167
					l2.374-1.614l-0.599,2.796c-3.537,16.518-7.09,33.033-10.849,49.506l-2.757,12.367l-2.658,12.388
					c-1.778,8.257-3.432,16.54-5.01,24.839l-0.592,3.112c-0.189,1.074-0.542,2.161-1.042,3.156c-0.993,2.004-2.6,3.712-4.563,4.829
					c-1.018,0.566-1.938,0.941-2.903,1.412l-2.867,1.348l-1.433,0.674l-0.717,0.337c-0.196,0.095-0.566,0.274-0.936,0.344
					c-0.737,0.155-1.532,0.022-2.184-0.371c-0.327-0.194-0.616-0.455-0.846-0.759c-0.253-0.348-0.34-0.549-0.48-0.779
					c-4.242-7.303-8.364-14.673-12.484-22.045l-12.427-22.068c-1.051-1.821-2.09-3.675-3.2-5.425
					c-1.049-1.66-2.842-2.752-4.729-3.524c-1.91-0.762-3.968-1.199-6.041-1.469c-1.038-0.143-2.085-0.21-3.134-0.28
					c-0.525-0.022-1.05-0.049-1.576-0.054l-0.789-0.005l-0.394,0.004l-0.197,0.004C265.118,297.135,264.894,297.112,264.836,297.052
					z"/>
			</g>
			<g>
				<path style="fill:#1D1D1B;" d="M321.423,349.594l-4.933,2.429l-2.532,1.219c-0.988,0.435-2.265,0.124-2.949-0.762
					c-0.183-0.231-0.29-0.44-0.406-0.628l-0.353-0.589l-0.706-1.177l-1.396-2.362l-2.781-4.731l-5.57-9.456l-5.499-9.495
					l-11.084-18.913c-0.464-0.786-0.932-1.559-1.411-2.307c-0.485-0.714-0.963-1.283-1.623-1.804
					c-1.282-1.028-2.897-1.733-4.576-2.227c-3.377-0.974-7.053-1.242-10.61-1.125l-2.343,0.077l1.922-1.267
					c6.314-4.165,12.634-8.322,18.866-12.606c3.134-2.116,6.22-4.302,9.329-6.454c3.104-2.159,6.214-4.31,9.289-6.512l18.487-13.157
					l18.572-13.034l2.117-1.485l-0.441,2.564c-1.499,8.707-2.938,17.441-4.497,26.146c-1.526,8.714-3.137,17.404-4.764,26.071
					c-1.662,8.65-3.25,17.329-4.963,25.918C324.886,332.532,323.186,341.106,321.423,349.594z M321.243,349.453
					c1.303-8.832,2.668-17.578,4.053-26.293c1.353-8.731,2.831-17.372,4.234-26.042c1.439-8.653,2.894-17.284,4.434-25.89
					c1.506-8.615,3.133-17.201,4.7-25.815l1.675,1.078l-18.82,12.672l-18.905,12.549c-3.157,2.083-6.279,4.216-9.407,6.341
					c-3.123,2.133-6.269,4.231-9.367,6.399c-6.232,4.284-12.377,8.695-18.527,13.099l-0.422-1.19
					c3.734-0.261,7.464-0.13,11.164,0.781c1.832,0.478,3.683,1.16,5.294,2.385c0.375,0.344,0.815,0.606,1.13,1.026
					c0.313,0.391,0.719,0.799,0.944,1.187c0.523,0.782,1.018,1.564,1.5,2.344c3.841,6.264,7.405,12.648,10.999,19.027l5.366,9.577
					l5.249,9.642l5.18,9.608c0.408,0.601,1.258,0.879,1.974,0.612l2.476-1.023L321.243,349.453z"/>
			</g>
			<g>
				<polygon style="fill:#FFFFFF;" points="111.458,284.54 133.015,335.363 134.567,333.825 112.748,282.854 				"/>
				<path style="fill:#1D1D1B;" d="M111.501,284.545c1.938,4.251,3.822,8.479,5.672,12.699c1.821,4.222,3.676,8.433,5.422,12.658
					l5.186,12.712c1.752,4.24,3.563,8.47,5.422,12.67l-0.329-0.065l1.53-1.56l-0.05,0.257l-5.607-12.677
					c-1.84-4.238-3.704-8.466-5.496-12.725c-1.821-4.247-3.61-8.507-5.37-12.779c-1.77-4.268-3.519-8.545-5.22-12.843l0.166,0.021
					L111.501,284.545z M111.416,284.534l1.255-1.739l0.096-0.133l0.071,0.153c1.935,4.198,3.823,8.415,5.689,12.642
					c1.876,4.223,3.723,8.458,5.539,12.707c1.844,4.237,3.617,8.503,5.413,12.76l5.302,12.808l0.062,0.149l-0.112,0.108
					l-1.573,1.516l-0.218,0.21l-0.111-0.275c-1.734-4.271-3.516-8.512-5.357-12.742l-5.593-12.699
					c-1.847-4.246-3.585-8.506-5.357-12.754C114.78,292.997,113.071,288.754,111.416,284.534z"/>
			</g>
			<g>
				<g>
					<path style="fill:#FFFFFF;" d="M150.269,332.744l-58.878-7.755c-0.766-0.101-1.537,0.156-2.09,0.695l-5.488,5.357
						c-0.258,0.252-0.178,0.686,0.153,0.829l44.218,19.079L150.269,332.744z"/>
					<path style="fill:#1D1D1B;" d="M150.159,332.775c-10.439-1.086-20.277-2.014-29.93-3.123c-4.83-0.536-9.513-1.286-14.28-2.073
						c-4.756-0.794-9.588-1.607-14.463-2.23c-0.563-0.095-1.091,0.009-1.551,0.289c-0.416,0.265-0.854,0.795-1.296,1.202
						l-2.608,2.629l-1.288,1.331l-0.578,0.604c0.018,0.007,0.001-0.015,0.033-0.013l3.443,1.366
						c4.601,1.799,9.198,3.605,13.755,5.507l13.67,5.703c4.544,1.931,9.06,3.927,13.564,5.948l-1.162,0.165
						c3.605-2.864,7.222-5.648,11.027-8.461C142.281,338.798,146.183,335.877,150.159,332.775z M150.379,332.712
						c-3.385,2.967-6.844,6.114-10.421,9.361c-3.556,3.255-7.301,6.54-11.057,9.745l-0.51,0.435l-0.652-0.27
						c-4.561-1.891-9.112-3.806-13.634-5.787l-13.528-6.032c-4.51-2.01-8.978-4.115-13.443-6.229l-3.356-1.568
						c-0.246-0.096-0.519-0.369-0.59-0.665c-0.088-0.296-0.03-0.635,0.157-0.884c0.113-0.145,0.171-0.18,0.222-0.231l0.17-0.157
						l0.341-0.314l1.362-1.256l2.692-2.543l0.666-0.643c0.208-0.202,0.464-0.464,0.771-0.643c0.595-0.368,1.359-0.488,2.012-0.366
						c4.915,0.666,9.872,1.143,14.906,1.638c5.022,0.502,10.129,1.042,15.089,1.795
						C131.498,329.569,141.239,331.219,150.379,332.712z"/>
				</g>
				<g>
					<path style="fill:#FFFFFF;" d="M150.269,332.744l-58.878-7.755c-0.766-0.101-1.537,0.156-2.09,0.695l-5.488,5.357
						c-0.258,0.252-0.178,0.686,0.153,0.829l44.218,19.079L150.269,332.744z"/>
					<path style="fill:#1D1D1B;" d="M150.159,332.775c-10.439-1.086-20.277-2.014-29.93-3.123c-4.83-0.536-9.513-1.286-14.28-2.073
						c-4.756-0.794-9.588-1.607-14.463-2.23c-0.563-0.095-1.091,0.009-1.551,0.289c-0.416,0.265-0.854,0.795-1.296,1.202
						l-2.608,2.629l-1.288,1.331l-0.578,0.604c0.018,0.007,0.001-0.015,0.033-0.013l3.443,1.366
						c4.601,1.799,9.198,3.605,13.755,5.507l13.67,5.703c4.544,1.931,9.06,3.927,13.564,5.948l-1.162,0.165
						c3.605-2.864,7.222-5.648,11.027-8.461C142.281,338.798,146.183,335.877,150.159,332.775z M150.379,332.712
						c-3.385,2.967-6.844,6.114-10.421,9.361c-3.556,3.255-7.301,6.54-11.057,9.745l-0.51,0.435l-0.652-0.27
						c-4.561-1.891-9.112-3.806-13.634-5.787l-13.528-6.032c-4.51-2.01-8.978-4.115-13.443-6.229l-3.356-1.568
						c-0.246-0.096-0.519-0.369-0.59-0.665c-0.088-0.296-0.03-0.635,0.157-0.884c0.113-0.145,0.171-0.18,0.222-0.231l0.17-0.157
						l0.341-0.314l1.362-1.256l2.692-2.543l0.666-0.643c0.208-0.202,0.464-0.464,0.771-0.643c0.595-0.368,1.359-0.488,2.012-0.366
						c4.915,0.666,9.872,1.143,14.906,1.638c5.022,0.502,10.129,1.042,15.089,1.795
						C131.498,329.569,141.239,331.219,150.379,332.712z"/>
				</g>
			</g>
			<g>
				<polygon style="fill:#FFFFFF;" points="385.131,163.543 167.047,318.429 165.797,313.98 377.624,162.452 				"/>
				<path style="fill:#1D1D1B;" d="M385.242,163.516l-53.759,38.776l-27.153,19.522c-9.028,6.524-18.237,13.008-27.352,19.505
					l-55.098,38.643l-13.691,9.664l-13.614,9.733c-9.094,6.47-18.118,13.028-27.178,19.563l-0.692,0.499l-0.24-0.828l-1.288-4.438
					l-0.124-0.428l0.369-0.27c17.529-12.8,35.094-25.549,52.707-38.231c17.609-12.687,35.2-25.401,52.894-37.97l26.511-18.895
					l26.595-18.778l26.643-18.711l26.721-18.602l0.078-0.054l0.085,0.014L385.242,163.516z M385.02,163.57l-7.428-0.895l0.163-0.04
					l-26.236,19.28l-26.314,19.171l-26.362,19.104l-26.445,18.987c-17.61,12.686-35.325,25.227-53.02,37.794
					c-17.691,12.573-35.43,25.078-53.206,37.533l0.245-0.697l1.213,4.459l-0.932-0.329c9.114-6.373,18.263-12.722,27.343-19.159
					l13.646-9.628l13.569-9.697l53.944-38.8c9.059-6.411,18.024-12.833,27.169-19.217l27.368-19.2L385.02,163.57z"/>
			</g>
			<g>
				<g>
					<path style="fill:#FFFFFF;" d="M214.881,266.586L42.448,236.603c-0.741-0.129-1.059-1.016-0.57-1.586l6.563-7.654
						c2.024-2.359,4.938-3.772,8.044-3.897l257.759-10.403c0,0,19.358,0.56-0.653,16.184
						c-20.01,15.624-100.374,67.007-100.374,67.007S230.912,278.081,214.881,266.586z"/>
					<path style="fill:#1D1D1B;" d="M214.837,266.691c-49.589-7.866-98.837-16.22-148.064-24.877l-18.45-3.3l-4.611-0.84
						l-1.153-0.21l-0.316-0.06c-0.173-0.038-0.346-0.099-0.504-0.191c-0.319-0.179-0.58-0.458-0.732-0.781
						c-0.154-0.322-0.212-0.69-0.158-1.049c0.04-0.35,0.256-0.724,0.443-0.927l0.771-0.884l6.198-7.09
						c1.15-1.205,2.553-2.163,4.091-2.789c1.518-0.64,3.244-0.904,4.815-0.901l9.38-0.3l18.757-0.627
						c25.007-0.889,50.008-1.92,75.007-3.098l75.002-3.51l75.013-3.241l2.344-0.092l1.172-0.046l0.293-0.012
						c0.058-0.001,0.07-0.007,0.194-0.001l0.172,0.009l0.629,0.048c1.65,0.169,3.288,0.474,4.911,1.156
						c0.805,0.348,1.617,0.799,2.332,1.488c0.715,0.674,1.285,1.673,1.416,2.723c0.147,1.049-0.066,2.044-0.401,2.877
						c-0.316,0.864-0.77,1.599-1.235,2.309c-1.944,2.757-4.367,4.872-6.829,6.884c-1.23,1.022-2.508,1.918-3.762,2.877
						c-1.253,0.956-2.526,1.875-3.805,2.781c-10.2,7.305-20.612,14.248-31.07,21.128c-10.456,6.88-20.954,13.691-31.478,20.461
						c-10.547,6.735-21.112,13.438-31.706,20.098l-3.527,2.217l2.86-3.036c1.91-2.027,3.637-4.316,5.069-6.74
						c1.418-2.431,2.588-5.044,3.103-7.81c0.528-2.745,0.376-5.669-0.797-8.238C219.121,270.497,217.045,268.371,214.837,266.691z
						 M214.925,266.48c1.174,0.867,2.318,1.762,3.266,2.85c0.512,0.512,0.917,1.115,1.357,1.689
						c0.374,0.619,0.782,1.223,1.065,1.895c1.28,2.627,1.517,5.677,1.038,8.534c-0.464,2.88-1.603,5.596-2.995,8.125
						c-1.421,2.527-3.082,4.889-5.058,7.052l-0.667-0.818c10.475-6.837,20.924-13.718,31.35-20.63
						c10.445-6.883,20.87-13.796,31.244-20.78c5.189-3.489,10.358-7.007,15.511-10.544c5.155-3.531,10.314-7.064,15.361-10.725
						c1.272-0.904,2.533-1.819,3.764-2.764c1.228-0.944,2.511-1.849,3.685-2.831c2.371-1.933,4.688-4.012,6.347-6.389
						c0.785-1.167,1.409-2.506,1.241-3.525c-0.103-0.99-1.053-1.813-2.331-2.345c-1.264-0.533-2.736-0.822-4.192-0.963l-0.541-0.04
						l-0.12-0.006c0.027-0.002-0.059,0.002-0.099,0.003l-0.293,0.012l-1.172,0.049l-2.344,0.097l-74.996,2.813l-75.007,2.544
						c-25.004,0.84-50.006,1.827-75.002,2.956l-18.745,0.887l-9.372,0.457c-3.032-0.006-5.907,1.217-7.903,3.391l-6.038,7.139
						l-0.756,0.897c-0.096,0.117-0.06,0.124-0.041,0.205c0.015,0.031,0.039,0.047,0.06,0.058c0.01,0.007,0.025,0.009,0.043,0.013
						l0.26,0.045l1.158,0.192l4.634,0.767l18.528,3.129C116.546,248.408,165.906,257.2,214.925,266.48z"/>
				</g>
				<g>
					<path style="fill:#1D1D1B;" d="M313.69,229.304c-3.97,3.157-8.028,6.165-12.115,9.082c-4.083,2.942-8.208,5.823-12.331,8.708
						c-8.282,5.715-16.625,11.339-24.977,16.95c-8.347,5.618-16.772,11.118-25.188,16.63l-25.312,16.442l-6.734,4.374l5.453-5.946
						c1.837-2.004,3.54-4.293,4.918-6.685c1.37-2.402,2.485-4.97,2.954-7.638c0.481-2.652,0.304-5.41-0.823-7.816
						c-0.245-0.616-0.615-1.173-0.947-1.748c-0.401-0.534-0.762-1.098-1.235-1.582c-0.867-1.03-1.939-1.888-3.02-2.722l0.387,0.162
						l-46.027-8.403c-7.668-1.417-15.345-2.787-23.024-4.141l-23.037-4.067c-15.372-2.631-30.74-5.287-46.128-7.822l-23.074-3.852
						l-5.768-0.964l-2.884-0.482l-1.442-0.241l-0.721-0.12c-0.141-0.026-0.193-0.026-0.408-0.074
						c-0.211-0.045-0.417-0.141-0.6-0.267c-0.746-0.504-0.981-1.585-0.488-2.357c0.052-0.084,0.14-0.197,0.179-0.244l0.118-0.14
						l0.236-0.279l0.472-0.558l1.889-2.232l3.778-4.465l0.231-0.273l0.368-0.025c22.245-1.499,44.502-2.721,66.766-3.856
						c22.262-1.175,44.54-2.029,66.822-2.783c11.141-0.385,22.286-0.662,33.433-0.853c11.147-0.199,22.296-0.327,33.447-0.328
						c11.151,0.039,22.305,0.193,33.452,0.673c5.573,0.242,11.145,0.595,16.7,1.188c2.776,0.303,5.55,0.658,8.297,1.208
						c1.371,0.282,2.741,0.598,4.071,1.077c0.663,0.242,1.319,0.527,1.919,0.938c0.304,0.195,0.574,0.467,0.786,0.787
						c0.195,0.342,0.242,0.771,0.119,1.145l0.007-0.031L313.69,229.304z M313.492,229.191l0.396-3.559l0.001-0.009l0.006-0.022
						c0.083-0.299,0.042-0.599-0.113-0.865c-0.181-0.252-0.412-0.485-0.7-0.658c-0.559-0.363-1.198-0.625-1.848-0.842
						c-1.305-0.433-2.666-0.712-4.029-0.955c-2.731-0.475-5.499-0.757-8.268-0.988c-5.542-0.453-11.106-0.64-16.668-0.802
						c-11.128-0.284-22.267-0.235-33.403-0.086c-22.275,0.225-44.543,1.03-66.811,1.778c-22.268,0.77-44.527,1.814-66.791,2.768
						c-22.261,1.005-44.519,2.128-66.772,3.269l0.599-0.298l-3.836,4.415l-1.918,2.207l-0.878,1.014
						c-0.053,0.059-0.028,0.194,0.045,0.243c0.018,0.011,0.034,0.025,0.063,0.029c0.022,0.01,0.213,0.04,0.311,0.059l0.719,0.13
						l1.439,0.26l2.878,0.52l5.755,1.04l23.02,4.163c15.341,2.808,30.703,5.495,46.061,8.208l23.058,3.948
						c7.686,1.318,15.374,2.619,23.071,3.874l46.162,7.627l0.221,0.037l0.166,0.126c1.185,0.899,2.362,1.835,3.349,2.988
						c0.528,0.541,0.952,1.179,1.407,1.788c0.39,0.656,0.811,1.297,1.104,2.009c1.325,2.79,1.537,6.006,1.011,8.956
						c-0.511,2.978-1.705,5.738-3.144,8.296c-1.475,2.558-3.159,4.92-5.208,7.107l-1.281-1.572l25.409-16.267l25.337-16.381
						c8.44-5.468,16.86-10.967,25.24-16.525C297.025,240.686,305.44,235.064,313.492,229.191z"/>
				</g>
				<g>
					<g>
						<path style="fill:#FFFFFF;" d="M192.804,200.555c-0.222-0.484-13.109,8.493-13.828,9.082
							c-4.476,3.668-8.6,7.835-11.934,12.579c-1.481,2.107-8.926,12.989-4.212,14.306c0.746,0.208,1.541,0.079,2.297-0.089
							c4.201-0.934,8.048-3.002,11.835-5.047c3.469-1.873,6.641-4.302,9.67-6.805c3.642-3.009,7.218-6.098,10.745-9.241
							c0.526-0.469,0.923-0.842,1.444-1.315C198.822,214.024,192.805,200.555,192.804,200.555z"/>
						<path style="fill:#1D1D1B;" d="M192.701,200.604c0.078,0.086,0.056,0.03,0.038,0.051c-0.017,0.002-0.046,0.014-0.07,0.021
							l-0.158,0.068l-0.318,0.165l-0.627,0.367l-1.234,0.78c-0.807,0.545-1.601,1.112-2.394,1.679
							c-1.569,1.16-3.105,2.368-4.636,3.579l-2.29,1.821l-1.132,0.913l-0.273,0.219l-0.244,0.218l-0.537,0.485
							c-1.428,1.299-2.835,2.61-4.216,3.946c-2.747,2.683-5.431,5.449-7.739,8.558c-1.167,1.545-2.256,3.156-3.184,4.852
							c-0.909,1.689-1.753,3.487-1.988,5.331c-0.095,0.903,0.066,1.846,0.743,2.201c0.675,0.401,1.578,0.282,2.475,0.041
							c1.844-0.48,3.616-1.213,5.334-2.053c1.721-0.84,3.4-1.785,5.092-2.738c1.717-0.948,3.305-1.905,4.871-3.028
							c3.113-2.211,6.017-4.784,8.988-7.305c1.498-1.241,2.972-2.509,4.489-3.729l4.57-3.64l-0.2,0.956
							c-0.855-2.307-1.689-4.626-2.562-6.929C194.638,205.125,193.68,202.859,192.701,200.604z M192.907,200.505
							c1.027,2.234,2.074,4.458,3.219,6.639c1.133,2.186,2.305,4.357,3.456,6.54l0.254,0.481l-0.454,0.475
							c-2.714,2.842-5.695,5.374-8.618,7.981c-1.478,1.289-2.937,2.575-4.478,3.81c-1.551,1.218-3.149,2.395-4.811,3.493
							c-1.646,1.096-3.435,2.106-5.175,2.967c-1.748,0.887-3.532,1.748-5.391,2.463c-1.858,0.715-3.782,1.289-5.751,1.65
							c-0.964,0.171-2.192,0.306-3.202-0.392c-0.5-0.338-0.842-0.897-0.961-1.444c-0.125-0.55-0.109-1.09-0.036-1.6
							c0.328-2.036,1.212-3.821,2.082-5.584c0.896-1.755,1.868-3.463,2.881-5.153c2.054-3.364,4.443-6.58,7.262-9.365
							c1.395-1.406,2.891-2.707,4.448-3.922l0.588-0.45l0.324-0.243l0.317-0.215c0.414-0.275,0.835-0.525,1.252-0.784l2.512-1.525
							l5.049-2.996l2.509-1.518l1.256-0.759l0.643-0.359l0.334-0.166c0.057-0.026,0.116-0.051,0.179-0.073
							c0.035-0.01,0.062-0.022,0.106-0.029C192.737,200.441,192.788,200.367,192.907,200.505z"/>
					</g>
					<g>
						<path style="fill:#FFFFFF;" d="M199.42,205.989c1.716,3.737,1.592,7.461-0.276,8.32c-1.868,0.858-4.774-1.476-6.49-5.212
							c-1.716-3.737-1.592-7.462,0.276-8.32C194.798,199.919,197.704,202.253,199.42,205.989z"/>
						<path style="fill:#1D1D1B;" d="M199.458,205.971c0.603,1.375,1.188,2.786,1.409,4.324c0.112,0.764,0.134,1.565-0.07,2.355
							c-0.174,0.779-0.666,1.608-1.505,1.982c-0.857,0.335-1.75,0.108-2.425-0.275c-0.694-0.383-1.27-0.903-1.799-1.449
							c-1.06-1.097-1.913-2.364-2.627-3.714c-0.7-1.355-1.224-2.831-1.368-4.394c-0.072-0.779-0.063-1.581,0.136-2.384
							c0.18-0.788,0.666-1.64,1.53-2.055c0.883-0.37,1.836-0.177,2.541,0.209c0.732,0.374,1.32,0.919,1.826,1.505
							C198.123,203.253,198.817,204.613,199.458,205.971z M199.381,206.007c-0.631-1.358-1.561-2.581-2.673-3.533
							c-0.556-0.472-1.157-0.881-1.781-1.158c-0.624-0.282-1.288-0.367-1.807-0.124c-0.515,0.25-0.871,0.805-1.051,1.461
							c-0.19,0.651-0.233,1.372-0.194,2.088c0.083,1.439,0.46,2.878,0.991,4.258c0.558,1.367,1.329,2.681,2.397,3.714
							c0.532,0.512,1.145,0.946,1.807,1.215c0.654,0.286,1.377,0.337,1.924,0.058c0.541-0.291,0.891-0.868,1.076-1.534
							c0.185-0.663,0.259-1.385,0.26-2.116C200.325,208.872,200.009,207.368,199.381,206.007z"/>
					</g>
					<g>
						<path style="fill:#FFFFFF;" d="M199.42,205.989c1.716,3.737,1.592,7.461-0.276,8.32c-1.868,0.858-4.774-1.476-6.49-5.212
							c-1.716-3.737-1.592-7.462,0.276-8.32C194.798,199.919,197.704,202.253,199.42,205.989z"/>
						<path style="fill:#1D1D1B;" d="M199.471,205.966c0.599,1.377,1.229,2.772,1.485,4.323c0.131,0.769,0.169,1.583-0.038,2.395
							c-0.173,0.798-0.688,1.669-1.576,2.057c-0.908,0.344-1.83,0.088-2.508-0.311c-0.7-0.403-1.27-0.936-1.798-1.488
							c-1.051-1.114-1.924-2.368-2.666-3.715c-0.728-1.351-1.277-2.833-1.431-4.416c-0.077-0.789-0.074-1.605,0.127-2.433
							c0.18-0.81,0.688-1.712,1.61-2.154c0.944-0.391,1.944-0.181,2.663,0.223c0.75,0.391,1.336,0.958,1.833,1.563
							C198.174,203.225,198.829,204.607,199.471,205.966z M199.368,206.013c-0.63-1.358-1.598-2.558-2.726-3.472
							c-0.564-0.454-1.167-0.84-1.773-1.101c-0.61-0.264-1.226-0.332-1.685-0.11c-0.457,0.222-0.791,0.728-0.971,1.362
							c-0.189,0.626-0.237,1.333-0.203,2.038c0.073,1.419,0.425,2.851,0.928,4.236c0.531,1.37,1.281,2.698,2.359,3.713
							c0.533,0.506,1.152,0.926,1.808,1.176c0.651,0.269,1.345,0.291,1.84,0.022c0.491-0.277,0.818-0.813,1.005-1.459
							c0.182-0.642,0.272-1.351,0.292-2.076C200.271,208.891,200,207.371,199.368,206.013z"/>
					</g>
					<g>
						<path style="fill:#FFFFFF;" d="M198.12,206.586c1.057,2.301,0.98,4.594-0.17,5.123c-1.15,0.528-2.94-0.909-3.996-3.21
							c-1.057-2.301-0.98-4.594,0.17-5.123C195.274,202.848,197.063,204.285,198.12,206.586z"/>
						<path style="fill:#1D1D1B;" d="M198.159,206.568c0.367,0.85,0.778,1.7,0.955,2.662c0.091,0.477,0.123,0.985-0.007,1.496
							c-0.105,0.501-0.436,1.061-1.009,1.307c-0.587,0.217-1.17,0.043-1.589-0.211c-0.434-0.258-0.781-0.594-1.106-0.937
							c-0.645-0.692-1.191-1.46-1.662-2.287c-0.463-0.829-0.814-1.745-0.915-2.731c-0.05-0.492-0.052-1.001,0.073-1.525
							c0.111-0.511,0.435-1.092,1.035-1.379c0.614-0.252,1.255-0.113,1.706,0.145c0.471,0.249,0.831,0.611,1.133,0.993
							C197.38,204.868,197.762,205.732,198.159,206.568z M198.081,206.604c-0.387-0.836-1.004-1.563-1.707-2.105
							c-0.68-0.518-1.544-0.976-2.06-0.707c-0.517,0.234-0.732,1.181-0.685,2.014c0.039,0.863,0.243,1.741,0.538,2.596
							c0.313,0.845,0.767,1.668,1.432,2.287c0.624,0.604,1.623,1.045,2.202,0.697c0.563-0.322,0.725-1.254,0.777-2.115
							C198.615,208.383,198.473,207.439,198.081,206.604z"/>
					</g>
					<g>
						<path style="fill:#FFFFFF;" d="M195.617,207.289c-0.602-1.311-1.442-2.324-2.265-2.871c-0.295,1.006-0.108,2.535,0.602,4.081
							c0.602,1.311,1.441,2.325,2.265,2.871C196.514,210.364,196.327,208.835,195.617,207.289z"/>
						<path style="fill:#1D1D1B;" d="M195.604,207.295c-0.522-1.118-1.36-2.074-2.32-2.775l0.184-0.067
							c-0.177,0.605-0.207,1.271-0.12,1.917c0.08,0.651,0.305,1.275,0.571,1.871c0.554,1.175,1.337,2.276,2.382,3.006l-0.224,0.082
							c0.177-0.642,0.158-1.341,0.079-2.025C196.077,208.616,195.887,207.935,195.604,207.295z M195.63,207.283
							c0.296,0.635,0.555,1.293,0.725,1.985c0.162,0.691,0.204,1.429,0.007,2.143l-0.055,0.198l-0.17-0.116
							c-1.138-0.776-1.862-1.972-2.351-3.196c-0.249-0.616-0.418-1.26-0.543-1.911c-0.115-0.65-0.186-1.333-0.007-2.002l0.042-0.158
							l0.142,0.091c0.535,0.345,0.972,0.818,1.319,1.335C195.085,206.172,195.375,206.722,195.63,207.283z"/>
					</g>
				</g>
				<g>
					<g>
						<path style="fill:#FFFFFF;" d="M251.918,198.344c-0.222-0.484-13.109,8.493-13.828,9.082
							c-4.476,3.668-8.601,7.835-11.935,12.578c-1.481,2.107-8.926,12.989-4.212,14.306c0.746,0.208,1.542,0.079,2.297-0.089
							c4.201-0.934,8.049-3.002,11.835-5.047c3.469-1.873,6.641-4.302,9.67-6.805c3.642-3.01,7.218-6.099,10.745-9.242
							c0.525-0.468,0.923-0.841,1.444-1.315C257.935,211.812,251.918,198.344,251.918,198.344z"/>
						<path style="fill:#1D1D1B;" d="M251.815,198.393c0.078,0.086,0.056,0.03,0.038,0.051c-0.017,0.002-0.046,0.014-0.07,0.021
							l-0.158,0.068l-0.318,0.166l-0.627,0.367l-1.234,0.78c-0.808,0.545-1.601,1.112-2.394,1.679
							c-1.569,1.16-3.105,2.368-4.635,3.58l-2.29,1.821l-1.132,0.913l-0.272,0.219l-0.245,0.218l-0.538,0.485
							c-1.428,1.299-2.835,2.61-4.216,3.946c-2.747,2.683-5.431,5.449-7.74,8.558c-1.167,1.545-2.256,3.156-3.184,4.852
							c-0.909,1.689-1.753,3.487-1.988,5.331c-0.095,0.903,0.066,1.846,0.743,2.201c0.675,0.402,1.578,0.281,2.475,0.041
							c1.844-0.48,3.616-1.213,5.334-2.053c1.721-0.84,3.4-1.786,5.092-2.739c1.717-0.948,3.305-1.905,4.871-3.028
							c3.113-2.211,6.017-4.784,8.988-7.305c1.497-1.241,2.972-2.509,4.49-3.729l4.569-3.64l-0.2,0.955
							c-0.855-2.307-1.689-4.626-2.562-6.929C253.752,202.914,252.794,200.648,251.815,198.393z M252.021,198.294
							c1.027,2.234,2.074,4.458,3.219,6.639c1.133,2.186,2.305,4.357,3.456,6.54l0.254,0.481l-0.454,0.475
							c-2.715,2.842-5.695,5.375-8.618,7.981c-1.478,1.289-2.937,2.576-4.478,3.81c-1.551,1.218-3.149,2.395-4.811,3.493
							c-1.646,1.096-3.435,2.106-5.175,2.967c-1.748,0.887-3.532,1.748-5.391,2.463c-1.858,0.715-3.782,1.289-5.751,1.65
							c-0.964,0.171-2.192,0.307-3.202-0.392c-0.5-0.338-0.842-0.897-0.961-1.444c-0.125-0.55-0.109-1.09-0.036-1.6
							c0.328-2.036,1.212-3.821,2.082-5.584c0.896-1.755,1.868-3.463,2.881-5.154c2.054-3.364,4.444-6.58,7.262-9.365
							c1.395-1.406,2.891-2.707,4.448-3.922l0.588-0.45l0.323-0.243l0.317-0.215c0.414-0.275,0.835-0.525,1.252-0.784l2.512-1.525
							l5.049-2.996l2.509-1.518l1.256-0.759l0.643-0.359l0.335-0.166c0.057-0.026,0.116-0.051,0.179-0.073
							c0.035-0.01,0.062-0.022,0.106-0.029C251.85,198.23,251.902,198.156,252.021,198.294z"/>
					</g>
					<g>
						<path style="fill:#FFFFFF;" d="M258.615,203.778c1.716,3.737,1.592,7.462-0.276,8.32c-1.868,0.858-4.774-1.476-6.49-5.213
							c-1.716-3.737-1.592-7.462,0.276-8.319C253.994,197.708,256.9,200.042,258.615,203.778z"/>
						<path style="fill:#1D1D1B;" d="M258.654,203.76c0.603,1.375,1.188,2.786,1.409,4.324c0.112,0.764,0.134,1.565-0.07,2.355
							c-0.174,0.779-0.666,1.608-1.505,1.982c-0.856,0.335-1.749,0.108-2.425-0.275c-0.694-0.383-1.27-0.903-1.799-1.449
							c-1.06-1.097-1.913-2.364-2.627-3.714c-0.7-1.355-1.224-2.831-1.368-4.394c-0.071-0.779-0.063-1.581,0.136-2.384
							c0.18-0.788,0.666-1.64,1.53-2.055c0.883-0.37,1.835-0.178,2.541,0.209c0.732,0.374,1.32,0.919,1.826,1.505
							C257.319,201.042,258.013,202.402,258.654,203.76z M258.576,203.796c-0.631-1.358-1.561-2.581-2.672-3.532
							c-0.556-0.472-1.157-0.881-1.781-1.158c-0.624-0.282-1.288-0.367-1.808-0.124c-0.515,0.25-0.871,0.805-1.051,1.461
							c-0.19,0.651-0.233,1.372-0.194,2.088c0.083,1.439,0.46,2.878,0.991,4.258c0.558,1.367,1.329,2.681,2.398,3.714
							c0.532,0.512,1.145,0.946,1.807,1.215c0.654,0.285,1.377,0.337,1.924,0.058c0.541-0.291,0.891-0.868,1.076-1.534
							c0.185-0.663,0.259-1.385,0.26-2.116C259.52,206.661,259.205,205.157,258.576,203.796z"/>
					</g>
					<g>
						<path style="fill:#FFFFFF;" d="M258.615,203.778c1.716,3.737,1.592,7.462-0.276,8.32c-1.868,0.858-4.774-1.476-6.49-5.213
							c-1.716-3.737-1.592-7.462,0.276-8.319C253.994,197.708,256.9,200.042,258.615,203.778z"/>
						<path style="fill:#1D1D1B;" d="M258.667,203.755c0.599,1.377,1.229,2.772,1.485,4.323c0.131,0.769,0.169,1.584-0.038,2.395
							c-0.172,0.798-0.688,1.669-1.576,2.057c-0.908,0.344-1.83,0.088-2.508-0.311c-0.7-0.403-1.27-0.936-1.798-1.488
							c-1.051-1.113-1.924-2.368-2.666-3.715c-0.728-1.351-1.277-2.833-1.431-4.416c-0.077-0.789-0.074-1.605,0.127-2.433
							c0.18-0.81,0.687-1.712,1.61-2.154c0.944-0.391,1.944-0.181,2.663,0.223c0.75,0.391,1.337,0.958,1.833,1.563
							C257.37,201.014,258.025,202.396,258.667,203.755z M258.563,203.802c-0.629-1.358-1.598-2.558-2.726-3.472
							c-0.564-0.454-1.167-0.84-1.773-1.101c-0.61-0.264-1.226-0.332-1.685-0.11c-0.457,0.222-0.791,0.728-0.971,1.362
							c-0.188,0.626-0.237,1.333-0.203,2.038c0.073,1.419,0.425,2.851,0.928,4.236c0.531,1.37,1.281,2.698,2.359,3.713
							c0.533,0.506,1.152,0.926,1.809,1.175c0.651,0.269,1.345,0.291,1.84,0.022c0.491-0.277,0.818-0.813,1.005-1.459
							c0.182-0.642,0.272-1.351,0.292-2.076C259.467,206.68,259.196,205.16,258.563,203.802z"/>
					</g>
					<g>
						<path style="fill:#FFFFFF;" d="M257.316,204.375c1.057,2.301,0.98,4.594-0.17,5.123c-1.151,0.528-2.94-0.909-3.997-3.21
							c-1.056-2.301-0.98-4.595,0.17-5.123C254.47,200.637,256.259,202.074,257.316,204.375z"/>
						<path style="fill:#1D1D1B;" d="M257.354,204.357c0.366,0.849,0.778,1.7,0.955,2.662c0.091,0.477,0.123,0.985-0.007,1.496
							c-0.105,0.501-0.435,1.061-1.009,1.307c-0.587,0.217-1.169,0.043-1.589-0.211c-0.434-0.258-0.781-0.594-1.107-0.937
							c-0.645-0.692-1.191-1.46-1.662-2.287c-0.463-0.829-0.814-1.745-0.915-2.731c-0.05-0.492-0.052-1.001,0.073-1.525
							c0.111-0.511,0.435-1.092,1.035-1.379c0.614-0.252,1.255-0.113,1.706,0.145c0.472,0.249,0.832,0.611,1.133,0.993
							C256.576,202.657,256.958,203.521,257.354,204.357z M257.277,204.393c-0.387-0.836-1.004-1.563-1.707-2.105
							c-0.68-0.518-1.544-0.976-2.06-0.707c-0.517,0.234-0.732,1.181-0.685,2.014c0.04,0.863,0.243,1.741,0.538,2.596
							c0.313,0.845,0.767,1.668,1.432,2.286c0.624,0.604,1.623,1.045,2.203,0.697c0.563-0.322,0.725-1.254,0.777-2.115
							C257.811,206.172,257.668,205.228,257.277,204.393z"/>
					</g>
					<g>
						<path style="fill:#FFFFFF;" d="M254.813,205.078c-0.602-1.311-1.442-2.324-2.266-2.871c-0.295,1.006-0.108,2.535,0.602,4.081
							c0.602,1.311,1.441,2.325,2.265,2.871C255.709,208.153,255.523,206.624,254.813,205.078z"/>
						<path style="fill:#1D1D1B;" d="M254.8,205.084c-0.522-1.118-1.36-2.074-2.32-2.775l0.184-0.067
							c-0.177,0.605-0.207,1.271-0.12,1.917c0.08,0.651,0.305,1.275,0.571,1.871c0.554,1.175,1.337,2.276,2.382,3.006l-0.224,0.082
							c0.177-0.642,0.159-1.341,0.079-2.024C255.273,206.405,255.083,205.724,254.8,205.084z M254.826,205.072
							c0.296,0.635,0.555,1.293,0.725,1.985c0.162,0.691,0.204,1.429,0.006,2.143l-0.055,0.198l-0.17-0.116
							c-1.138-0.776-1.862-1.972-2.351-3.196c-0.249-0.617-0.417-1.26-0.543-1.911c-0.115-0.65-0.186-1.333-0.008-2.002l0.042-0.158
							l0.142,0.091c0.535,0.345,0.972,0.818,1.319,1.335C254.281,203.961,254.571,204.51,254.826,205.072z"/>
					</g>
				</g>
			</g>
			<g>
				<g>
					<path style="fill:#FFFFFF;" d="M356.06,273.995c0.242,0.332-10.675,5.642-11.345,5.905c-4.164,1.637-8.531,2.848-12.99,3.308
						c-1.98,0.205-12.132,1.123-11.242-2.555c0.141-0.582,0.528-1.07,0.927-1.517c2.215-2.482,5.062-4.298,7.87-6.082
						c2.573-1.634,5.408-2.858,8.24-3.958c3.404-1.323,6.838-2.57,10.289-3.764c0.514-0.178,0.916-0.305,1.432-0.478
						C349.241,264.853,356.059,273.994,356.06,273.995z"/>
					<path style="fill:#1D1D1B;" d="M356.157,273.935c0.051,0.153-0.026,0.163-0.032,0.195c-0.023,0.03-0.042,0.043-0.062,0.064
						l-0.119,0.095l-0.239,0.165l-0.485,0.301l-0.985,0.564l-1.961,1.14l-3.89,2.354c-0.648,0.395-1.299,0.783-1.959,1.16
						c-0.33,0.188-0.656,0.382-0.998,0.563l-0.267,0.138l-0.293,0.133l-0.525,0.234c-1.406,0.609-2.852,1.138-4.335,1.546
						c-2.956,0.856-6.055,1.207-9.112,1.276c-1.529,0.022-3.052,0.017-4.577-0.047c-1.523-0.086-3.061-0.159-4.583-0.706
						c-0.379-0.143-0.759-0.338-1.097-0.64c-0.339-0.296-0.604-0.763-0.649-1.253c-0.1-0.995,0.473-1.804,0.95-2.4
						c0.981-1.211,2.087-2.317,3.266-3.322c1.179-1.006,2.431-1.9,3.685-2.754c1.23-0.857,2.603-1.699,3.965-2.406
						c1.373-0.719,2.773-1.363,4.182-1.958c1.42-0.575,2.835-1.08,4.267-1.586c2.868-0.98,5.708-2.025,8.672-2.727l0.654-0.155
						l0.278,0.447c1.016,1.63,2.007,3.268,3.028,4.876C353.947,270.845,355.042,272.396,356.157,273.935z M355.962,274.054
						c-1.158-1.508-2.335-3.005-3.598-4.437c-1.252-1.44-2.533-2.849-3.791-4.266l0.932,0.292c-1.385,0.583-2.761,1.206-4.155,1.768
						c-1.389,0.577-2.8,1.093-4.198,1.643c-2.817,1.062-5.647,2.038-8.303,3.28c-1.346,0.624-2.575,1.317-3.87,2.111
						c-1.285,0.773-2.559,1.535-3.78,2.358c-1.22,0.822-2.39,1.717-3.414,2.761c-0.504,0.504-0.905,1.036-0.9,1.594
						c-0.033,0.531,0.499,0.981,1.135,1.26c1.309,0.536,2.839,0.649,4.316,0.665c1.49,0.008,2.985-0.136,4.462-0.365
						c2.956-0.434,5.807-1.249,8.641-2.086c1.415-0.431,2.827-0.876,4.242-1.332c1.325-0.415,2.768-1.057,4.169-1.57
						c1.411-0.542,2.816-1.101,4.201-1.701c0.685-0.314,1.371-0.628,2.046-0.962l0.992-0.535l0.484-0.283l0.231-0.15l0.104-0.079
						C355.95,274.019,355.947,273.902,355.962,274.054z"/>
				</g>
				<g>
					<path style="fill:#FFFFFF;" d="M354.739,267.942c-1.874-2.567-4.434-3.889-5.718-2.952c-1.284,0.937-0.805,3.778,1.069,6.345
						c1.874,2.567,4.434,3.889,5.718,2.952C357.092,273.35,356.613,270.509,354.739,267.942z"/>
					<path style="fill:#1D1D1B;" d="M354.704,267.967c-0.678-0.939-1.598-1.698-2.588-2.229c-0.965-0.496-2.118-0.932-2.885-0.461
						c-0.371,0.236-0.618,0.717-0.68,1.259c-0.078,0.538-0.027,1.115,0.114,1.665c0.287,1.108,0.892,2.118,1.614,2.996
						c0.743,0.864,1.576,1.644,2.507,2.23c0.892,0.568,2.084,0.965,2.752,0.491c0.327-0.23,0.515-0.676,0.566-1.189
						c0.052-0.51,0.017-1.063-0.078-1.615C355.831,270.009,355.383,268.904,354.704,267.967z M354.773,267.917
						c0.674,0.946,1.357,1.911,1.795,3.045c0.218,0.563,0.378,1.172,0.358,1.823c0,0.636-0.234,1.385-0.85,1.871
						c-0.642,0.452-1.436,0.455-2.049,0.272c-0.632-0.176-1.183-0.481-1.686-0.829c-1.009-0.7-1.803-1.627-2.441-2.625
						c-0.631-1.006-1.156-2.065-1.503-3.197c-0.173-0.565-0.316-1.15-0.322-1.773c-0.012-0.608,0.164-1.322,0.735-1.802
						c0.593-0.45,1.371-0.469,1.973-0.285c0.624,0.166,1.159,0.497,1.629,0.873C353.363,266.044,354.07,266.993,354.773,267.917z"/>
				</g>
				<g>
					<path style="fill:#FFFFFF;" d="M354.65,267.389c-1.874-2.568-4.434-3.889-5.718-2.952c-1.284,0.937-0.805,3.778,1.069,6.346
						c1.874,2.567,4.434,3.889,5.718,2.952C357.003,272.797,356.525,269.956,354.65,267.389z"/>
					<path style="fill:#1D1D1B;" d="M354.604,267.422c-0.674-0.941-1.629-1.669-2.626-2.163c-0.979-0.463-2.09-0.843-2.766-0.439
						c-0.338,0.196-0.596,0.637-0.671,1.168c-0.092,0.524-0.056,1.099,0.079,1.647c0.267,1.108,0.894,2.107,1.633,2.962
						c0.76,0.842,1.6,1.597,2.518,2.164c0.882,0.56,2.044,0.888,2.589,0.48c0.589-0.377,0.629-1.594,0.487-2.656
						C355.693,269.485,355.284,268.358,354.604,267.422z M354.697,267.355c0.674,0.947,1.395,1.89,1.874,3.028
						c0.239,0.565,0.419,1.183,0.405,1.858c0.009,0.656-0.233,1.457-0.897,1.985c-0.694,0.49-1.542,0.487-2.174,0.293
						c-0.655-0.187-1.215-0.503-1.724-0.862c-1.022-0.719-1.809-1.67-2.43-2.691c-0.615-1.028-1.118-2.098-1.484-3.23
						c-0.178-0.567-0.337-1.154-0.357-1.791c-0.025-0.619,0.139-1.372,0.745-1.892c0.629-0.486,1.456-0.506,2.073-0.311
						c0.644,0.173,1.182,0.525,1.648,0.92C353.318,265.454,353.989,266.434,354.697,267.355z"/>
				</g>
				<g>
					<path style="fill:#FFFFFF;" d="M353.757,268.04c-1.154-1.581-2.731-2.395-3.521-1.817c-0.79,0.577-0.496,2.326,0.659,3.907
						c1.154,1.581,2.73,2.395,3.521,1.818C355.206,271.371,354.911,269.622,353.757,268.04z"/>
					<path style="fill:#1D1D1B;" d="M353.723,268.066c-0.413-0.581-1.02-1.012-1.637-1.296c-0.61-0.267-1.272-0.472-1.639-0.259
						c-0.413,0.194-0.549,1.028-0.378,1.675c0.158,0.68,0.552,1.291,1.015,1.806c0.477,0.506,0.998,0.958,1.556,1.297
						c0.538,0.34,1.237,0.505,1.506,0.29c0.313-0.177,0.368-0.901,0.299-1.556C354.372,269.348,354.142,268.641,353.723,268.066z
						 M353.792,268.015c0.414,0.584,0.879,1.152,1.196,1.855c0.158,0.349,0.281,0.734,0.275,1.163
						c0.01,0.415-0.144,0.935-0.578,1.283c-0.455,0.321-1.007,0.318-1.406,0.192c-0.416-0.121-0.765-0.322-1.082-0.548
						c-0.636-0.453-1.118-1.052-1.491-1.692c-0.371-0.645-0.672-1.308-0.904-2.007c-0.112-0.35-0.219-0.713-0.239-1.112
						c-0.022-0.387,0.073-0.872,0.464-1.214c0.407-0.319,0.942-0.331,1.33-0.206c0.407,0.111,0.741,0.338,1.025,0.592
						C352.96,266.829,353.354,267.449,353.792,268.015z"/>
				</g>
				<g>
					<path style="fill:#FFFFFF;" d="M352.339,269.464c0.658,0.901,1.025,1.85,1.083,2.612c-0.791-0.181-1.752-0.884-2.527-1.946
						c-0.658-0.901-1.025-1.849-1.083-2.612C350.602,267.699,351.564,268.402,352.339,269.464z"/>
					<path style="fill:#1D1D1B;" d="M352.35,269.456c0.546,0.765,1.132,1.601,1.192,2.611l0.01,0.169l-0.158-0.041
						c-0.525-0.135-0.956-0.452-1.35-0.778c-0.395-0.33-0.752-0.698-1.088-1.089c-0.654-0.785-1.198-1.727-1.293-2.798l-0.018-0.205
						l0.199,0.049c0.565,0.138,1.049,0.45,1.451,0.828C351.694,268.587,352.035,269.015,352.35,269.456z M352.327,269.472
						c-0.326-0.431-0.72-0.81-1.159-1.114c-0.435-0.302-0.897-0.575-1.389-0.695l0.181-0.156c0.098,0.969,0.536,1.911,1.107,2.735
						c0.565,0.827,1.429,1.507,2.381,1.715l-0.148,0.127C353.182,271.185,352.886,270.247,352.327,269.472z"/>
				</g>
			</g>
			<g>
				<g>
					<path style="fill:#FFFFFF;" d="M354.324,300.083c0.242,0.333-10.676,5.642-11.345,5.905c-4.164,1.637-8.531,2.848-12.99,3.308
						c-1.98,0.205-12.132,1.123-11.242-2.555c0.141-0.582,0.528-1.07,0.927-1.517c2.215-2.482,5.062-4.299,7.87-6.083
						c2.573-1.634,5.408-2.858,8.24-3.958c3.405-1.322,6.838-2.57,10.289-3.764c0.514-0.178,0.916-0.305,1.432-0.478
						C347.505,290.941,354.324,300.082,354.324,300.083z"/>
					<path style="fill:#1D1D1B;" d="M354.422,300.024c0.051,0.153-0.026,0.163-0.032,0.195c-0.023,0.03-0.042,0.043-0.062,0.064
						l-0.119,0.095l-0.239,0.165l-0.485,0.301l-0.985,0.564l-1.961,1.14l-3.89,2.354c-0.648,0.395-1.299,0.783-1.959,1.16
						c-0.331,0.188-0.656,0.382-0.998,0.563l-0.266,0.138l-0.293,0.133l-0.525,0.234c-1.406,0.609-2.852,1.138-4.335,1.546
						c-2.956,0.856-6.055,1.207-9.112,1.276c-1.529,0.022-3.051,0.017-4.577-0.047c-1.523-0.086-3.061-0.159-4.583-0.706
						c-0.379-0.143-0.759-0.338-1.098-0.64c-0.339-0.296-0.604-0.762-0.65-1.253c-0.101-0.995,0.473-1.804,0.949-2.4
						c0.982-1.211,2.087-2.317,3.266-3.322c1.179-1.006,2.431-1.9,3.685-2.754c1.23-0.857,2.603-1.7,3.965-2.406
						c1.373-0.719,2.773-1.364,4.182-1.958c1.42-0.576,2.835-1.08,4.267-1.586c2.868-0.98,5.708-2.025,8.672-2.727l0.654-0.155
						l0.278,0.446c1.016,1.63,2.007,3.268,3.028,4.875C352.211,296.934,353.306,298.485,354.422,300.024z M354.227,300.142
						c-1.158-1.508-2.335-3.005-3.598-4.437c-1.252-1.44-2.533-2.849-3.791-4.266l0.932,0.291c-1.386,0.583-2.761,1.206-4.156,1.768
						c-1.389,0.577-2.8,1.093-4.198,1.643c-2.817,1.062-5.647,2.038-8.303,3.28c-1.346,0.624-2.575,1.318-3.87,2.111
						c-1.285,0.773-2.559,1.535-3.78,2.358c-1.22,0.822-2.39,1.717-3.414,2.761c-0.504,0.504-0.905,1.036-0.9,1.594
						c-0.032,0.531,0.5,0.98,1.135,1.26c1.309,0.536,2.84,0.649,4.317,0.665c1.49,0.008,2.985-0.136,4.462-0.365
						c2.956-0.434,5.807-1.249,8.641-2.086c1.415-0.431,2.827-0.876,4.243-1.332c1.325-0.415,2.768-1.057,4.169-1.57
						c1.411-0.542,2.816-1.101,4.201-1.701c0.685-0.314,1.371-0.628,2.046-0.962l0.992-0.535l0.484-0.283l0.231-0.15l0.104-0.079
						C354.214,300.108,354.211,299.99,354.227,300.142z"/>
				</g>
				<g>
					<path style="fill:#FFFFFF;" d="M353.24,293.461c-1.874-2.568-4.434-3.889-5.718-2.952c-1.284,0.937-0.805,3.778,1.069,6.345
						c1.874,2.568,4.434,3.889,5.718,2.952C355.593,298.87,355.114,296.028,353.24,293.461z"/>
					<path style="fill:#1D1D1B;" d="M353.206,293.487c-0.678-0.939-1.598-1.698-2.588-2.229c-0.965-0.496-2.118-0.932-2.885-0.461
						c-0.371,0.236-0.617,0.717-0.68,1.258c-0.078,0.538-0.027,1.115,0.114,1.665c0.287,1.108,0.892,2.118,1.614,2.996
						c0.743,0.864,1.576,1.644,2.507,2.23c0.892,0.569,2.083,0.965,2.753,0.491c0.327-0.23,0.515-0.676,0.566-1.189
						c0.052-0.51,0.017-1.063-0.078-1.615C354.332,295.528,353.885,294.424,353.206,293.487z M353.275,293.436
						c0.674,0.946,1.357,1.911,1.795,3.045c0.218,0.563,0.378,1.172,0.358,1.823c0,0.636-0.234,1.386-0.85,1.871
						c-0.642,0.452-1.436,0.455-2.049,0.272c-0.632-0.176-1.183-0.48-1.686-0.829c-1.009-0.7-1.803-1.627-2.441-2.625
						c-0.631-1.006-1.156-2.065-1.503-3.197c-0.173-0.565-0.316-1.15-0.322-1.773c-0.012-0.608,0.164-1.323,0.735-1.802
						c0.593-0.45,1.371-0.469,1.973-0.285c0.624,0.166,1.159,0.497,1.629,0.873C351.865,291.564,352.572,292.512,353.275,293.436z"
						/>
				</g>
				<g>
					<path style="fill:#FFFFFF;" d="M353.24,293.461c-1.874-2.568-4.434-3.889-5.718-2.952c-1.284,0.937-0.805,3.778,1.069,6.345
						c1.874,2.568,4.434,3.889,5.718,2.952C355.593,298.87,355.114,296.028,353.24,293.461z"/>
					<path style="fill:#1D1D1B;" d="M353.194,293.495c-0.674-0.941-1.629-1.669-2.626-2.163c-0.979-0.463-2.09-0.844-2.766-0.439
						c-0.338,0.196-0.596,0.637-0.671,1.168c-0.092,0.524-0.056,1.099,0.08,1.647c0.267,1.108,0.894,2.107,1.633,2.962
						c0.76,0.842,1.6,1.597,2.518,2.164c0.882,0.56,2.044,0.888,2.589,0.48c0.589-0.377,0.629-1.593,0.487-2.656
						C354.283,295.558,353.874,294.431,353.194,293.495z M353.286,293.428c0.674,0.947,1.395,1.89,1.874,3.028
						c0.239,0.565,0.419,1.183,0.405,1.858c0.009,0.656-0.233,1.457-0.897,1.985c-0.694,0.49-1.542,0.487-2.174,0.293
						c-0.655-0.187-1.215-0.503-1.724-0.862c-1.022-0.718-1.809-1.67-2.43-2.691c-0.615-1.028-1.118-2.098-1.484-3.23
						c-0.178-0.567-0.337-1.154-0.357-1.791c-0.025-0.619,0.14-1.372,0.745-1.892c0.629-0.486,1.456-0.505,2.073-0.311
						c0.644,0.173,1.182,0.525,1.648,0.92C351.908,291.526,352.579,292.506,353.286,293.428z"/>
				</g>
				<g>
					<path style="fill:#FFFFFF;" d="M352.348,294.113c-1.154-1.581-2.731-2.395-3.521-1.818c-0.79,0.577-0.496,2.327,0.658,3.907
						c1.154,1.581,2.731,2.395,3.521,1.818C353.796,297.443,353.501,295.694,352.348,294.113z"/>
					<path style="fill:#1D1D1B;" d="M352.313,294.138c-0.413-0.581-1.02-1.012-1.637-1.296c-0.61-0.268-1.272-0.472-1.639-0.259
						c-0.413,0.194-0.549,1.028-0.378,1.675c0.158,0.681,0.552,1.291,1.015,1.806c0.477,0.506,0.998,0.958,1.556,1.297
						c0.538,0.34,1.237,0.505,1.506,0.29c0.313-0.177,0.368-0.901,0.299-1.556C352.962,295.42,352.732,294.714,352.313,294.138z
						 M352.382,294.088c0.414,0.584,0.879,1.152,1.196,1.855c0.158,0.349,0.28,0.735,0.274,1.163
						c0.01,0.415-0.143,0.935-0.578,1.283c-0.456,0.321-1.007,0.317-1.406,0.192c-0.416-0.121-0.765-0.322-1.082-0.548
						c-0.636-0.453-1.118-1.052-1.491-1.693c-0.371-0.645-0.672-1.309-0.904-2.007c-0.112-0.35-0.218-0.713-0.238-1.112
						c-0.022-0.387,0.073-0.872,0.464-1.214c0.407-0.319,0.942-0.331,1.33-0.205c0.407,0.111,0.741,0.338,1.025,0.592
						C351.55,292.901,351.944,293.522,352.382,294.088z"/>
				</g>
				<g>
					<path style="fill:#FFFFFF;" d="M350.929,295.536c0.658,0.901,1.025,1.849,1.082,2.611c-0.79-0.18-1.751-0.883-2.527-1.945
						c-0.658-0.901-1.024-1.849-1.082-2.612C349.192,293.772,350.154,294.474,350.929,295.536z"/>
					<path style="fill:#1D1D1B;" d="M350.94,295.528c0.546,0.765,1.132,1.6,1.192,2.611l0.01,0.168l-0.158-0.041
						c-0.525-0.135-0.956-0.452-1.35-0.778c-0.395-0.33-0.752-0.698-1.087-1.089c-0.654-0.785-1.198-1.727-1.293-2.798l-0.018-0.205
						l0.199,0.049c0.565,0.138,1.049,0.45,1.451,0.828C350.285,294.659,350.625,295.087,350.94,295.528z M350.917,295.545
						c-0.326-0.431-0.72-0.81-1.159-1.114c-0.435-0.303-0.897-0.574-1.389-0.695l0.181-0.156c0.098,0.969,0.536,1.911,1.107,2.735
						c0.565,0.827,1.429,1.507,2.381,1.715l-0.148,0.127C351.772,297.257,351.476,296.32,350.917,295.545z"/>
				</g>
			</g>
		</g>
		<g>
			<polygon style="fill:#1D1D1B;" points="43.635,232.334 211.665,260.981 43.447,233.46 			"/>
		</g>
		
			<line style="fill:none;stroke:#1D1D1B;stroke-width:1.1413;stroke-miterlimit:10;" x1="73.379" y1="237.688" x2="70.209" y2="241.605"/>
		
			<line style="fill:none;stroke:#1D1D1B;stroke-width:1.1413;stroke-miterlimit:10;" x1="117.765" y1="245.335" x2="115.341" y2="249.064"/>
		<g>
			<polygon style="fill:#1D1D1B;" points="315.183,351.941 289.122,301.2 316.193,351.409 			"/>
		</g>
		
			<line style="fill:none;stroke:#1D1D1B;stroke-width:0.5706;stroke-miterlimit:10;" x1="309.959" y1="340.299" x2="306.543" y2="342.007"/>
		
			<line style="fill:none;stroke:#1D1D1B;stroke-width:0.5706;stroke-miterlimit:10;" x1="301.8" y1="324.739" x2="297.435" y2="326.826"/>
		<g>
			<polygon style="fill:#1D1D1B;" points="132.854,347.892 86.815,328.682 133.685,345.767 			"/>
		</g>
		<g>
			<polygon style="fill:#1D1D1B;" points="140.517,352.362 153.979,369.711 138.789,353.853 			"/>
		</g>
		<g>
			<polygon style="fill:#1D1D1B;" points="437.915,148.363 387.506,180.777 437.289,147.409 			"/>
		</g>
		<g>
			<g>
				<polygon style="fill:#1D1D1B;" points="135.395,222.934 82.624,267.041 134.656,222.065 				"/>
			</g>
			<g>
				<polygon style="fill:#1D1D1B;" points="145.89,222.173 124.92,240.466 145.122,221.329 				"/>
			</g>
			<g>
				<polygon style="fill:#1D1D1B;" points="121.56,223.297 84.87,255.812 120.793,222.451 				"/>
			</g>
			<g>
				<polygon style="fill:#1D1D1B;" points="332.206,287.739 270.521,325.057 331.607,286.767 				"/>
			</g>
			<g>
				<polygon style="fill:#1D1D1B;" points="331.816,293.183 307.992,307.528 331.207,292.218 				"/>
			</g>
			<g>
				<polygon style="fill:#1D1D1B;" points="332.021,283.695 298.959,303.097 331.429,282.72 				"/>
			</g>
			<g>
				<polygon style="fill:#1D1D1B;" points="138.643,296.852 107.426,320.438 137.942,295.952 				"/>
			</g>
			<g>
				<polygon style="fill:#1D1D1B;" points="134.079,293.065 123.871,299.944 133.398,292.149 				"/>
			</g>
			<g>
				<polygon style="fill:#1D1D1B;" points="111.012,328.009 80.86,345.738 110.418,327.035 				"/>
			</g>
			<g>
				<polygon style="fill:#1D1D1B;" points="117.842,329.022 93.763,342.955 117.25,328.046 				"/>
			</g>
			<g>
				<polygon style="fill:#1D1D1B;" points="158.846,356.083 133.739,371.798 158.222,355.128 				"/>
			</g>
			<g>
				<polygon style="fill:#1D1D1B;" points="159.102,360.383 141.582,371.292 158.472,359.431 				"/>
			</g>
		</g>
		<g>
			<path style="fill:#1D1D1B;" d="M361.256,184.892c0.38,0.266,0.758,0.556,1.035,0.953c0.303,0.379,0.368,0.968,0.125,1.427
				c-0.234,0.458-0.617,0.78-0.948,1.097c-0.342,0.318-0.688,0.635-1.044,0.941c-1.412,1.24-3.016,2.26-4.725,3.043
				c-0.208,0.098-0.456,0.209-0.765,0.265c-0.312,0.062-0.683-0.009-0.939-0.157c-0.526-0.303-0.786-0.697-1.105-1.026
				c-0.619-0.691-1.241-1.379-1.888-2.041c-1.29-1.328-2.661-2.575-4.052-3.801l-1.045-0.918c-0.334-0.34-0.714-0.501-1.063-1.136
				c-0.162-0.334-0.112-0.768,0.018-1.045c0.126-0.287,0.294-0.514,0.451-0.692c0.32-0.362,0.642-0.724,0.979-1.074
				c0.385-0.307,0.74-0.652,1.158-0.924c0.441-0.24,0.846-0.552,1.345-0.692c0.943-0.421,2.021-0.431,3.016-0.327
				c2.004,0.347,3.706,1.366,5.145,2.56C358.418,182.521,359.745,183.82,361.256,184.892z M361.19,184.985
				c-1.505-1.078-3.06-2.111-4.657-3.02c-1.598-0.89-3.215-1.736-4.89-1.976c-1.664-0.236-3.313,0.367-4.627,1.53l-0.937,0.935
				c-0.324,0.318-0.465,0.593-0.399,0.737c0.061,0.207,0.485,0.59,0.772,0.927l0.937,1.028c1.251,1.368,2.522,2.717,3.874,3.983
				c0.674,0.635,1.373,1.245,2.074,1.852c0.353,0.299,0.695,0.644,1.006,0.76c0.295,0.122,0.503-0.001,0.93-0.237
				c1.599-0.883,3.159-1.811,4.726-2.771c0.39-0.242,0.774-0.496,1.154-0.757c0.38-0.266,0.762-0.509,1.006-0.855
				c0.259-0.337,0.241-0.817,0.003-1.193C361.927,185.547,361.556,185.258,361.19,184.985z"/>
		</g>
	</g>
</g>
</svg>
